<svg xmlns="http://www.w3.org/2000/svg" width="85" height="32" viewBox="0 0 85 32" fill="none">
    <path
        d="M4.77604 8.58405C4.77604 8.32805 4.80804 8.14405 4.87204 8.03205C4.95204 7.92005 5.10404 7.86405 5.32804 7.86405C5.56804 7.86405 5.86404 8.06405 6.21604 8.46405C6.56804 8.86405 6.74404 9.28805 6.74404 9.73605C6.74404 10.856 6.05604 13.688 4.68004 18.232C3.99204 20.44 3.64804 21.76 3.64804 22.192C3.64804 22.624 3.85604 22.84 4.27204 22.84C6.08004 22.84 8.06404 22.544 10.224 21.952C10.912 21.76 11.32 21.664 11.448 21.664C11.592 21.664 11.688 21.696 11.736 21.76C11.784 21.808 11.808 21.912 11.808 22.072C11.808 22.744 10.984 23.376 9.33604 23.9681C7.70404 24.5601 6.04004 24.856 4.34404 24.856C3.57604 24.856 2.90404 24.632 2.32804 24.184C1.76804 23.736 1.48804 23.208 1.48804 22.6C1.48804 21.976 2.03204 19.76 3.12004 15.952C4.22404 12.144 4.77604 9.68805 4.77604 8.58405Z"
        fill="#F5F6F6" />
    <path
        d="M16.9176 9.59205C16.9176 9.27205 17.0456 8.96805 17.3016 8.68005C17.5576 8.39205 17.8136 8.24805 18.0696 8.24805C18.3416 8.24805 18.6616 8.57605 19.0296 9.23205C19.3976 9.87205 19.5816 10.408 19.5816 10.84C19.5816 11 19.5096 11.144 19.3656 11.272C19.2216 11.4 19.0696 11.464 18.9096 11.464C18.5256 11.464 18.0936 11.232 17.6136 10.768C17.1496 10.304 16.9176 9.91205 16.9176 9.59205ZM16.7976 13C17.1016 13 17.3896 13.184 17.6616 13.552C17.9336 13.92 18.0696 14.28 18.0696 14.632C18.0696 14.984 17.8376 16.04 17.3736 17.8C16.9096 19.544 16.3256 21.504 15.6216 23.68C15.3496 24.48 15.0056 24.88 14.5896 24.88C14.3656 24.88 14.1736 24.792 14.0136 24.616C13.8536 24.424 13.7736 24.2161 13.7736 23.9921C13.7736 23.7521 13.8296 23.384 13.9416 22.888C14.0696 22.376 14.2456 21.704 14.4696 20.872C14.7096 20.024 14.8936 19.336 15.0216 18.808C15.1656 18.28 15.3096 17.688 15.4536 17.032C15.5976 16.36 15.7096 15.824 15.7896 15.424C15.8856 15.008 15.9896 14.592 16.1016 14.176C16.3256 13.392 16.5576 13 16.7976 13Z"
        fill="#F5F6F6" />
    <path
        d="M21.9163 20.728C23.4523 18.12 24.7003 16.184 25.6603 14.92C26.6363 13.64 27.4283 13 28.0363 13C28.6603 13 29.2443 13.328 29.7883 13.984C30.3483 14.64 30.6283 15.336 30.6283 16.072C30.6283 17.224 30.3643 18.632 29.8363 20.296C28.8764 23.368 28.0123 24.904 27.2443 24.904C26.8923 24.904 26.7163 24.664 26.7163 24.184C26.7163 23.848 26.8843 23.168 27.2204 22.144C27.5723 21.104 27.8923 20.088 28.1803 19.096C28.4843 18.088 28.6363 17.3361 28.6363 16.84C28.6363 16.328 28.5563 15.952 28.3963 15.712C28.2523 15.472 28.1003 15.352 27.9403 15.352C27.7963 15.352 27.6444 15.4 27.4844 15.496C27.3244 15.592 27.1404 15.752 26.9324 15.976C26.7403 16.2 26.5564 16.424 26.3804 16.648C26.2043 16.856 25.9804 17.16 25.7083 17.56C25.4524 17.96 25.2363 18.304 25.0603 18.592C24.8843 18.864 24.6283 19.264 24.2923 19.792C23.9563 20.32 23.7003 20.72 23.5243 20.992C23.3483 21.264 23.1163 21.632 22.8283 22.096C22.5403 22.56 22.3083 22.92 22.1323 23.176C21.9723 23.432 21.7883 23.712 21.5803 24.0161C21.1803 24.6081 20.8603 24.904 20.6203 24.904C20.3963 24.904 20.1323 24.728 19.8283 24.376C19.5243 24.008 19.3723 23.688 19.3723 23.416C19.3723 23.3361 19.4283 23.12 19.5403 22.768C19.8443 21.84 20.1803 20.696 20.5483 19.336C20.9163 17.96 21.1163 16.4 21.1483 14.656C21.1963 13.488 21.3643 12.904 21.6523 12.904C22.0043 12.904 22.3563 13.088 22.7083 13.456C23.0603 13.824 23.2363 14.232 23.2363 14.68C23.2363 15.112 23.1003 15.96 22.8283 17.224C22.5723 18.472 22.2683 19.64 21.9163 20.728Z"
        fill="#F5F6F6" />
    <path
        d="M38.7452 13C39.4652 13 40.1292 13.368 40.7372 14.104C41.3452 14.824 41.6492 15.48 41.6492 16.072C41.6492 16.648 41.4492 17.24 41.0492 17.848C41.2412 18.088 41.3372 18.296 41.3372 18.472C41.3372 18.92 41.2332 19.688 41.0252 20.776C40.8332 21.864 40.7132 22.576 40.6652 22.912C40.6332 23.248 40.6012 23.5201 40.5692 23.7281C40.5372 23.92 40.4972 24.112 40.4492 24.304C40.3852 24.704 40.2412 24.904 40.0172 24.904C39.7292 24.904 39.4892 24.656 39.2972 24.16C39.1212 23.6481 39.0172 22.992 38.9852 22.192C37.5612 24 36.2412 24.904 35.0252 24.904C34.2892 24.904 33.5612 24.5921 32.8412 23.9681C32.1372 23.3281 31.7852 22.672 31.7852 22C31.7852 21.04 32.1372 19.856 32.8412 18.448C33.5452 17.024 34.4572 15.76 35.5772 14.656C36.6972 13.552 37.7532 13 38.7452 13ZM39.8492 17.224C39.8492 15.736 39.5532 14.992 38.9612 14.992C38.3372 14.992 37.6092 15.44 36.7772 16.336C35.9452 17.216 35.2412 18.216 34.6652 19.336C34.0892 20.456 33.8012 21.344 33.8012 22C33.8012 22.272 33.9132 22.496 34.1372 22.672C34.3612 22.832 34.6252 22.912 34.9292 22.912C35.6812 22.912 36.5292 22.408 37.4732 21.4C38.4172 20.376 39.0732 19.136 39.4412 17.68C39.4892 17.44 39.6252 17.296 39.8492 17.248V17.224Z"
        fill="#F5F6F6" />
    <path
        d="M48.0992 7.02405C48.4992 7.02405 48.9872 7.28805 49.5632 7.81605C50.1392 8.34405 50.4272 8.88805 50.4272 9.44805C50.4272 10.984 49.6352 13.96 48.0512 18.376C47.5072 19.928 47.2352 21.008 47.2352 21.616C47.2352 21.696 47.2512 21.744 47.2832 21.76C47.3152 21.776 47.6112 21.784 48.1712 21.784C48.7312 21.784 49.4992 21.704 50.4752 21.544C51.4672 21.368 52.2672 21.2 52.8752 21.04C53.4992 20.88 53.8672 20.8 53.9792 20.8C54.3792 20.8 54.5792 21.056 54.5792 21.568C54.5792 22.576 53.8112 23.392 52.2752 24.0161C50.7552 24.6241 48.9872 24.928 46.9712 24.928C46.1872 24.928 45.4672 24.64 44.8112 24.064C44.1712 23.472 43.8512 22.824 43.8512 22.12C43.8512 21.416 44.4432 19.144 45.6272 15.304C46.8112 11.448 47.4032 8.95205 47.4032 7.81605C47.4032 7.28805 47.6352 7.02405 48.0992 7.02405Z"
        fill="#F5F6F6" />
    <path
        d="M67.3208 17.08C67.3208 17.864 66.7848 18.568 65.7128 19.192C64.6568 19.816 63.5688 20.128 62.4488 20.128C61.3288 20.128 60.4088 20.048 59.6888 19.888C59.5448 20.32 59.4728 20.752 59.4728 21.184C59.4728 21.616 59.5448 21.928 59.6888 22.12C59.8328 22.296 60.1928 22.384 60.7688 22.384C61.9688 22.384 62.9928 22.272 63.8408 22.048C64.7048 21.824 65.1528 21.712 65.1848 21.712C65.8408 21.712 66.1688 21.928 66.1688 22.36C66.1688 22.984 65.6488 23.576 64.6088 24.136C63.5848 24.696 62.3928 24.976 61.0328 24.976C59.6888 24.976 58.6088 24.552 57.7928 23.7041C56.9768 22.8561 56.5688 21.856 56.5688 20.704C56.5688 19.536 56.9048 18.32 57.5768 17.056C58.2648 15.792 59.1208 14.736 60.1448 13.888C61.1688 13.024 62.1848 12.592 63.1928 12.592C64.2168 12.592 65.1608 13.096 66.0248 14.104C66.8888 15.096 67.3208 16.088 67.3208 17.08ZM64.5368 16.696C64.5368 16.536 64.3688 16.304 64.0328 16C63.6968 15.696 63.3768 15.544 63.0728 15.544C62.7848 15.544 62.4088 15.76 61.9448 16.192C61.4808 16.608 61.0408 17.152 60.6248 17.824C60.7688 17.84 60.9768 17.848 61.2488 17.848C63.4408 17.848 64.5368 17.464 64.5368 16.696Z"
        fill="#F5F6F6" />
    <path
        d="M76.6875 12.592C77.1035 12.592 77.5035 12.744 77.8875 13.048C78.2875 13.336 78.4875 13.64 78.4875 13.96C78.4875 14.536 78.0075 15.872 77.0475 17.968C76.1035 20.064 75.2235 21.752 74.4075 23.032C73.6075 24.312 72.9835 24.952 72.5355 24.952C72.2955 24.952 71.9435 24.792 71.4795 24.472C71.0315 24.1521 70.7435 23.832 70.6155 23.512C70.2315 22.584 69.7675 20.872 69.2235 18.376C68.6795 15.864 68.4075 14.272 68.4075 13.6C68.4075 12.928 68.6315 12.592 69.0795 12.592C69.6235 12.592 70.1835 12.808 70.7595 13.24C71.7195 13.976 72.2555 14.96 72.3675 16.192C72.4155 16.768 72.4555 17.48 72.4875 18.328C72.5195 19.16 72.5915 19.88 72.7035 20.488C73.0875 19.752 73.5595 18.664 74.1195 17.224C74.6795 15.768 75.1595 14.632 75.5595 13.816C75.9755 13 76.3515 12.592 76.6875 12.592Z"
        fill="#F5F6F6" />
    <path
        d="M80.7645 9.59205C80.7645 9.17605 80.9485 8.75205 81.3165 8.32005C81.7005 7.87205 82.0685 7.64805 82.4205 7.64805C82.7885 7.64805 83.2205 8.08005 83.7165 8.94405C84.2125 9.80805 84.4605 10.44 84.4605 10.84C84.4605 11.224 84.3325 11.52 84.0765 11.728C83.8205 11.936 83.5565 12.04 83.2845 12.04C82.8205 12.04 82.2845 11.736 81.6765 11.128C81.0685 10.52 80.7645 10.008 80.7645 9.59205ZM81.1245 12.592C81.6845 12.592 82.1805 12.912 82.6125 13.552C83.0605 14.192 83.2845 14.808 83.2845 15.4C83.2845 15.704 83.0045 16.8 82.4445 18.688C81.9005 20.56 81.3565 22.3361 80.8125 24.0161C80.6205 24.6401 80.2285 24.952 79.6365 24.952C79.2845 24.952 78.9725 24.8241 78.7005 24.5681C78.4445 24.2961 78.3165 23.952 78.3165 23.536C78.3165 23.104 78.5165 22.048 78.9165 20.368C79.3325 18.672 79.6445 17.232 79.8525 16.048C80.0765 14.848 80.2765 13.976 80.4525 13.432C80.6445 12.872 80.8685 12.592 81.1245 12.592Z"
        fill="#F5F6F6" />
</svg>